# xmcd CD database file
#
# Track frame offsets:
#	150
#	3030
#	21147
#	38822
#	52435
#	80062
#	100970
#	118185
#	140150
#	158397
#	183047
#	185840
#	215790
#	229447
#	246202
#	286785
#
# Disc length: 4271 seconds
#
# Revision: 0
# Processed by: cddbd v1.5.1PL0 Copyright (c) Steve Scherf et al.
# Submitted via: CDex 1.51
#
DISCID=e610ad10
DTITLE=岡崎 律子 - Love and Life 〜private works 1999-2001〜
DYEAR=2005
DGENRE=JPop
TTITLE0=Welcome to Ritzberry Fields 2001
TTITLE1=やさしい贈りもの
TTITLE2=A merry December
TTITLE3=流星群の日
TTITLE4=待ちあわせ
TTITLE5=夢ははてしなく
TTITLE6=月下の散歩
TTITLE7=冬の陽
TTITLE8=the bright side
TTITLE9=星空にお祈り
TTITLE10=Welcome to Ritzberry Fields
TTITLE11=White Land
TTITLE12=〜ハミング〜
TTITLE13=12月の雪の日
TTITLE14=Moonshadow
TTITLE15=A Happy Life (video clip)
EXTD=YEAR: 2005
EXTT0=
EXTT1=
EXTT2=
EXTT3=
EXTT4=
EXTT5=
EXTT6=
EXTT7=
EXTT8=
EXTT9=
EXTT10=
EXTT11=
EXTT12=
EXTT13=
EXTT14=
EXTT15=
PLAYORDER=
